#!OML:ASF I:\Actors\actors\Patient Classification 1\Patient 1\Session 1\Subject1.ASF
:FULLY-SPECIFIED
:DEGREES
944
root 0.565965 18.6257 8.74426 16.9611 10.5975 -3.97361
lowerback 4.89345 0.884671 12.3103
upperback -4.59577 2.70515 6.61973
thorax -7.49174 0.884296 -0.118734
lowerneck -10.4439 -7.03249 -7.10673
upperneck 27.4481 -7.73593 -2.4195
head 10.7651 -4.4953 -0.619751
rclavicle 9.14409e-015 -9.54166e-015
rhumerus -35.9829 20.9213 -92.177
rradius 142.317
rwrist -48.678
rhand 69.188 -72.4064
rfingers 7.12502
rthumb 73.9394 -6.92192
lclavicle 9.14409e-015 -9.54166e-015
lhumerus -45.1527 -22.2692 106.766
lradius 140.37
lwrist 56.5155
lhand 68.2065 -9.37927
lfingers 7.12502
lthumb 74.2567 -1151.6
rfemur 0 0 0
rtibia 0
rfoot 0 0
rtoes 0
lfemur -34.3438 -55.2566 7.84594
ltibia 22.943
lfoot -44.4139 52.3913
ltoes -56.2264
945
root 0.552138 18.6259 8.74229 17.0353 9.54437 -3.24361
lowerback 5.17345 0.985382 11.0918
upperback -4.52235 2.75152 6.33563
thorax -7.58273 0.958743 0.223276
lowerneck -10.5706 -7.09475 -7.24094
upperneck 27.6886 -7.92438 -1.92542
head 10.9133 -4.53986 -0.45998
rclavicle 9.14409e-015 4.45278e-014
rhumerus -35.8371 20.8205 -92.3509
rradius 142.398
rwrist -48.7328
rhand 68.5552 -71.7291
rfingers 7.12502
rthumb 74.15 -8.33205
lclavicle 9.14409e-015 4.45278e-014
lhumerus -45.0329 -22.017 107.073
lradius 140.317
lwrist 56.7216
lhand 68.2572 -9.37864
lfingers 7.12502
lthumb 74.2416 -1151.77
rfemur 0 0 0
rtibia 0
rfoot 0 0
rtoes 0
lfemur -33.2597 -54.4577 5.96874
ltibia 22.9116
lfoot -45.5253 51.2005
ltoes -55.4437
946
root 0.525234 18.6307 8.75866 17.3092 9.38929 -3.92584
lowerback 4.52871 0.924056 11.266
upperback -4.47415 2.57292 6.40825
thorax -7.16541 0.883014 0.235498
lowerneck -10.5694 -7.08924 -7.21911
upperneck 27.5921 -8.0138 -1.60828
head 10.8907 -4.54235 -0.359971
rclavicle -7.95139e-016 -6.52014e-014
rhumerus -35.5912 20.8384 -92.3683
rradius 142.397
rwrist -48.9551
rhand 67.3469 -69.9945
rfingers 7.12502
rthumb 74.49 -10.7292
lclavicle -7.95139e-016 -6.52014e-014
lhumerus -44.8069 -21.8293 107.323
lradius 140.26
lwrist 56.7942
lhand 68.5567 -9.29886
lfingers 7.12502
lthumb 74.1496 -1152.7
rfemur 0 0 0
rtibia 0
rfoot 0 0
rtoes 0
lfemur -33.332 -53.6701 6.80863
ltibia 22.7742
lfoot -45.6112 50.6707
ltoes -55.2142
947
root 0.504016 18.6335 8.76642 16.9116 9.31539 -5.16741
lowerback 4.26543 0.765963 11.8938
upperback -4.08585 2.32306 6.58241
thorax -6.603 0.767569 0.10398
lowerneck -10.9246 -7.11091 -7.34091
upperneck 27.77 -8.13381 -1.09829
head 11.0606 -4.55043 -0.194458
rclavicle 1.11319e-014 -3.65764e-014
rhumerus -35.0431 21.0334 -92.1089
rradius 142.315
rwrist -49.3484
rhand 66.6868 -69.0901
rfingers 7.12502
rthumb 74.6397 -12.1533
lclavicle 1.11319e-014 -3.65764e-014
lhumerus -44.1424 -21.6898 107.413
lradius 140.172
lwrist 56.8789
lhand 68.7026 -8.69784
lfingers 7.12502
lthumb 74.1029 -1152.59
rfemur 0 0 0
rtibia 0
rfoot 0 0
rtoes 0
lfemur -32.3915 -53.1162 7.41418
ltibia 22.641
lfoot -45.3269 50.51
ltoes -55.2209
948
root 0.458702 18.6368 8.79143 17.2592 8.42704 -4.54935
lowerback 3.86807 0.859309 10.2423
upperback -4.1261 2.2291 5.99276
thorax -6.42506 0.787311 0.386227
lowerneck -10.8372 -7.15843 -7.10185
upperneck 27.957 -8.38092 -0.698095
head 11.1256 -4.59461 -0.123774
rclavicle -7.15625e-015 1.59028e-015
rhumerus -35.2074 20.8879 -92.2186
rradius 142.279
rwrist -49.456
rhand 66.8306 -68.9721
rfingers 7.12502
rthumb 74.6093 -11.5243
lclavicle -7.15625e-015 1.59028e-015
lhumerus -44.1145 -21.9516 107.488
lradius 140.179
lwrist 56.9736
lhand 68.6373 -8.41481
lfingers 7.12502
lthumb 74.1239 -1152.09
rfemur 0 0 0
rtibia 0
rfoot 0 0
rtoes 0
lfemur -31.861 -52.2392 6.23622
ltibia 22.5776
lfoot -45.8808 49.6837
ltoes -54.5726
